<svg width="130" height="52" viewBox="0 0 130 52" fill="none" xmlns="http://www.w3.org/2000/svg">
<path d="M44.2574 10.8464L49.9899 23.3803C50.1495 23.7293 50.1832 24.1329 50.084 24.5085C49.9848 24.8842 49.7602 25.2036 49.4562 25.4013L48.6921 25.8989C48.5305 26.0041 48.3514 26.0716 48.1657 26.0975C47.9799 26.1234 47.7914 26.107 47.6115 26.0495C47.4316 25.9919 47.2641 25.8943 47.1191 25.7627C46.9742 25.631 46.8548 25.4679 46.7683 25.2834L40.9005 12.7719C40.8166 12.5929 40.7653 12.3973 40.7494 12.1962C40.7336 11.9951 40.7535 11.7926 40.8081 11.6001C40.8628 11.4076 40.951 11.229 41.0677 11.0744C41.1845 10.9198 41.3275 10.7923 41.4886 10.6992L42.3881 10.1793C42.5501 10.0858 42.7271 10.0288 42.909 10.0117C43.0909 9.99466 43.274 10.0178 43.4478 10.0798C43.6217 10.1418 43.7827 10.2415 43.9216 10.3731C44.0606 10.5047 44.1747 10.6655 44.2574 10.8464V10.8464Z" fill="#0071AF"/>
<path d="M3.40157 23.6756L7.85801 10.5173C7.9822 10.1509 8.22755 9.85098 8.54397 9.67881C8.86039 9.50664 9.224 9.4752 9.56056 9.59093L10.4061 9.8821C10.5849 9.94372 10.7506 10.0451 10.8931 10.18C11.0356 10.315 11.152 10.4807 11.2351 10.6671C11.3182 10.8535 11.3665 11.0568 11.3768 11.2646C11.3871 11.4723 11.3594 11.6802 11.2952 11.8757L6.94483 25.1283C6.88271 25.3179 6.78756 25.4921 6.66482 25.6408C6.54209 25.7895 6.39417 25.9099 6.22953 25.995C6.0649 26.0801 5.88678 26.1282 5.70538 26.1367C5.52397 26.1453 5.34283 26.1139 5.17234 26.0445L4.22017 25.6571C4.04891 25.5875 3.89175 25.4808 3.75776 25.3433C3.62377 25.2058 3.5156 25.0401 3.4395 24.8559C3.3634 24.6717 3.32087 24.4726 3.31436 24.27C3.30785 24.0674 3.33749 23.8654 3.40157 23.6756V23.6756Z" fill="#323232"/>
<path d="M39.8713 13.7555L45.5946 25.9989C45.6567 26.1303 45.683 26.2789 45.6704 26.4267C45.6578 26.5744 45.6068 26.7149 45.5235 26.831C44.76 27.8969 42.5999 30.8584 41.2998 32.0638C41.1606 32.1928 40.9813 32.2555 40.8007 32.2383C40.6202 32.2211 40.4531 32.1254 40.3356 31.9721L29.8153 18.4156C29.7937 18.3874 29.7702 18.3612 29.7448 18.3372C29.4983 18.0989 28.1971 16.9763 26.6246 18.0575C25.0023 19.1738 21.7589 20.9247 21.2969 21.1757C21.2617 21.1935 21.2282 21.2148 21.1965 21.2394C20.8308 21.5344 18.3354 23.4458 17.3391 21.5765C16.3182 19.6618 18.7465 17.8141 19.0016 17.6262C19.017 17.6147 19.0302 17.6045 19.0451 17.5918C19.408 17.2732 24.1069 13.2152 26.6928 11.7778C29.3871 10.2825 31.0667 9.235 33.9599 11.7778C36.6255 14.1206 36.7207 14.7488 38.9294 13.4299C39.0104 13.382 39.0991 13.3524 39.1904 13.3428C39.2818 13.3333 39.3739 13.344 39.4615 13.3742C39.5491 13.4045 39.6304 13.4538 39.7008 13.5193C39.7711 13.5847 39.8291 13.665 39.8713 13.7555Z" fill="#0071AF"/>
<path d="M41.1154 33.3438C40.8981 33.9956 40.4991 34.7226 39.9947 35.1412C38.6986 36.2167 37.4225 34.65 36.6028 33.6121L36.5409 33.5324C36.3941 33.3343 36.2433 33.1425 36.0909 32.959C34.9753 31.5356 33.8624 30.1095 32.7523 28.6806C32.1842 27.9523 31.2354 29.0145 31.8007 29.7383L34.1344 32.7277C34.3258 32.973 34.5167 33.2292 34.7076 33.4872C34.7361 33.5377 34.7694 33.5847 34.8068 33.6274C34.8211 33.6439 34.8354 33.6618 34.8503 33.6783C35.133 34.0606 35.4236 34.4391 35.7205 34.8048C36.0648 35.3031 36.3535 35.8458 36.5804 36.4212C37.3061 38.325 35.9986 39.3279 34.4944 38.3856C32.5287 37.1533 30.9603 34.7902 29.7427 32.7214C29.2703 31.9186 28.1049 32.6672 28.5807 33.4757C29.3141 34.7157 30.132 35.8913 31.0273 36.9921C31.2681 37.2903 31.5318 37.6082 31.8127 37.9255C32.1297 38.9647 32.4352 40.4244 31.3111 40.9558C30.8468 41.175 30.3131 41.2107 29.808 41.1469C28.9482 41.0399 28.9556 42.5365 29.808 42.6429C30.5922 42.7404 31.4928 42.5792 32.1784 42.1383C33.1237 41.5311 33.4396 40.52 33.4287 39.4509C34.0851 39.9351 34.7959 40.2792 35.5468 40.3238C37.2723 40.4251 38.4446 38.699 38.1184 36.8774C38.1127 36.8456 38.1053 36.8137 38.0989 36.7838C39.9763 37.4649 41.6812 35.9338 42.4109 33.7427C42.7136 32.8399 41.4135 32.4518 41.1154 33.3438Z" fill="#323232"/>
<path d="M25.4841 10.5131C24.1886 9.49369 22.2613 9.93969 20.944 10.6023C19.25 11.458 18.0336 12.8361 16.0232 12.3449C15.2958 12.1665 14.5247 11.7779 13.9595 11.2286C13.5582 10.8393 13.0177 11.0165 12.8348 11.5587L7.98855 25.911C7.90199 26.1658 8.01205 26.4481 8.16052 26.6386L11.5714 30.9826C12.1417 31.709 13.0899 30.6475 12.523 29.925L9.40562 25.953C10.8708 21.6128 12.3359 17.2726 13.8007 12.9324C15.1192 13.8345 16.761 14.1894 18.2652 13.7791C20.1896 13.2541 22.7044 10.1519 24.8048 11.804C25.5134 12.3621 26.1892 11.0655 25.4841 10.5131Z" fill="#323232"/>
<path d="M18.7148 30.9366L16.1199 33.4156C15.1994 34.295 15.0945 35.8373 15.8857 36.8605L15.8861 36.8609C16.6773 37.8841 18.065 38.0006 18.9855 37.1212L21.5804 34.6422C22.5009 33.7628 22.6058 32.2205 21.8145 31.1973L21.8142 31.1969C21.023 30.1737 19.6353 30.0572 18.7148 30.9366Z" fill="#0071AF"/>
<path d="M25.7096 38.3567L24.4246 39.5843C23.504 40.4637 23.3992 42.006 24.1904 43.0292L24.1908 43.0296C24.982 44.0528 26.3697 44.1693 27.2902 43.2899L28.5753 42.0622C29.4958 41.1828 29.6006 39.6405 28.8094 38.6174L28.809 38.6169C28.0178 37.5938 26.6302 37.4773 25.7096 38.3567Z" fill="#0071AF"/>
<path d="M22.9056 33.9726L19.616 37.1153C18.6955 37.9947 18.5906 39.537 19.3818 40.5601L19.3822 40.5606C20.1734 41.5837 21.5611 41.7002 22.4816 40.8208L25.7712 37.6782C26.6917 36.7988 26.7966 35.2564 26.0053 34.2333L26.005 34.2328C25.2137 33.2097 23.8261 33.0932 22.9056 33.9726Z" fill="#0071AF"/>
<path d="M16.9382 32.1677C17.6146 31.5216 17.6916 30.3884 17.1102 29.6366C16.5289 28.8849 15.5093 28.7993 14.833 29.4454L13.2001 31.0054C12.5238 31.6515 12.4468 32.7847 13.0281 33.5364C13.6095 34.2881 14.629 34.3738 15.3054 33.7276L16.9382 32.1677Z" fill="#0071AF"/>
<path d="M63.4512 12.7817L71.2879 12.7565C76.1966 12.7565 80.8469 15.8314 79.8422 21.4357C78.8091 27.04 74.1296 30.1401 68.5038 30.1401H60.2656L63.4512 12.7817ZM68.7908 26.5688C72.1202 26.5688 74.962 24.9818 75.6227 21.4357C76.2536 17.8896 73.8142 16.3266 70.4847 16.3266L67.0684 16.3512L65.1744 26.5694L68.7908 26.5688Z" fill="#0071AF"/>
<path d="M84.1895 12.7565H92.3964C95.9059 12.7565 98.7927 14.8174 98.1419 18.4674C97.494 22.1421 94.2357 24.203 90.3583 24.203H86.3398L85.2643 30.1401H81.0752L84.1895 12.7565ZM90.5858 21.0747C92.3136 21.0747 93.6706 20.0067 93.9535 18.4674C94.2365 16.9516 93.2459 15.8848 91.5196 15.8848H87.812L86.9064 21.0747H90.5858Z" fill="#0071AF"/>
<path d="M98.5986 25.9792L102.784 24.997C103.182 26.2559 104.407 27.1375 106.229 27.1375C108.08 27.1375 109.361 26.3822 109.504 25.1982C109.788 23.032 104.948 23.4856 102.357 21.798C101.638 21.3432 101.077 20.7208 100.735 20.0003C100.393 19.2798 100.285 18.4894 100.421 17.7174C100.962 14.4934 104.208 12.3522 108.479 12.3522C111.924 12.3778 114.457 14.0904 115.027 16.6596L110.983 17.6687C110.642 16.4097 109.674 15.6287 107.994 15.6287C106.171 15.6287 104.947 16.5859 104.748 17.6687C104.349 19.783 108.193 19.6587 110.557 20.6409C112.891 21.4469 114.428 22.9583 114.058 25.2539C113.517 28.5535 110.3 30.5935 105.657 30.5435C101.871 30.4897 99.2794 28.6002 98.5986 25.9792Z" fill="#0071AF"/>
<path d="M47.159 37.0184L49.0435 37.0128C50.2263 37.0128 51.3465 37.7282 51.1045 39.0316C50.8625 40.335 49.728 41.0555 48.3726 41.0555H46.3916L47.159 37.0184ZM48.445 40.2249C49.2471 40.2249 49.9315 39.8559 50.0906 39.0303C50.2497 38.2048 49.6549 37.842 48.8528 37.842L48.0304 37.8477L47.5736 40.2249H48.445Z" fill="#0071AF"/>
<path d="M51.707 38.3006H52.7275L52.1592 41.0555H51.1387L51.707 38.3006ZM51.8295 37.4377C51.8613 37.3204 51.9432 37.2147 52.0621 37.1376C52.1809 37.0606 52.3299 37.0167 52.4849 37.013C52.5544 37.0111 52.6235 37.0214 52.6872 37.043C52.7508 37.0646 52.8074 37.097 52.8526 37.1378C52.8978 37.1786 52.9306 37.2267 52.9485 37.2786C52.9664 37.3306 52.9689 37.3849 52.9559 37.4377C52.9289 37.5572 52.8498 37.6659 52.7319 37.7459C52.614 37.826 52.4643 37.8724 52.3075 37.8777C52.2362 37.8789 52.1654 37.8677 52.1004 37.845C52.0354 37.8223 51.9779 37.7886 51.932 37.7463C51.8861 37.7041 51.8531 37.6544 51.8353 37.601C51.8176 37.5476 51.8156 37.4918 51.8295 37.4377V37.4377Z" fill="#0071AF"/>
<path d="M56.9796 38.2553L56.4497 41.0554C56.2379 42.1654 55.249 42.6725 54.1391 42.6725C53.5029 42.6725 52.8605 42.4138 52.5986 42.0082L53.4397 41.4804C53.6092 41.7294 53.9196 41.842 54.3016 41.842C54.8099 41.842 55.3468 41.6111 55.4384 41.1123L55.4885 40.8536C55.1579 41.0953 54.7329 41.2263 54.2947 41.2217C53.3974 41.2217 52.7542 40.6162 52.9237 39.721C53.0931 38.8258 53.9481 38.2255 54.8592 38.2255C55.3329 38.2255 55.6864 38.362 55.919 38.5994L55.983 38.2553H56.9796ZM55.7011 39.721C55.7858 39.2818 55.4469 38.9448 54.9378 38.9448C54.4287 38.9448 53.9773 39.2889 53.8995 39.721C53.8217 40.1531 54.1306 40.5037 54.6413 40.5037C54.8987 40.4971 55.1454 40.4153 55.3388 40.2725C55.5323 40.1296 55.6604 39.9346 55.7011 39.721V39.721Z" fill="#0071AF"/>
<path d="M57.5472 38.3007H58.5651L57.9974 41.0555H56.9795L57.5472 38.3007ZM57.6693 37.4378C57.701 37.3206 57.7826 37.2149 57.901 37.1379C58.0195 37.0609 58.1678 37.0169 58.3224 37.0131C58.392 37.0108 58.4614 37.0207 58.5254 37.0421C58.5894 37.0635 58.6464 37.0958 58.692 37.1366C58.7376 37.1775 58.7708 37.2258 58.7889 37.2779C58.8071 37.3301 58.8098 37.3847 58.7969 37.4378C58.7698 37.5572 58.6909 37.6659 58.5733 37.7459C58.4557 37.8259 58.3064 37.8724 58.1501 37.8777C58.0786 37.8795 58.0076 37.8686 57.9423 37.8461C57.8769 37.8236 57.819 37.7899 57.7728 37.7476C57.7266 37.7054 57.6933 37.6555 57.6754 37.6019C57.6575 37.5483 57.6554 37.4922 57.6693 37.4378V37.4378Z" fill="#0071AF"/>
<path d="M59.1955 40.0445L59.4071 38.9266H58.8047L58.9369 38.2343H59.5335L59.6859 37.417H60.625L60.4725 38.2343H61.3603L61.2346 38.9266H60.3469L60.1612 39.9084C60.1085 40.2035 60.2739 40.3792 60.625 40.3792C60.7562 40.3774 60.8862 40.3565 61.0092 40.3174L60.8835 40.9645C60.6735 41.0229 60.4543 41.0536 60.2334 41.0554C59.4671 41.0561 59.0828 40.636 59.1955 40.0445Z" fill="#0071AF"/>
<path d="M65.3764 38.2536L64.8838 41.027H63.9924L64.0495 40.7075C63.7583 40.9387 63.3787 41.063 62.9879 41.0551C62.2301 41.0551 61.5976 40.4833 61.7478 39.6379C61.898 38.7924 62.6434 38.2255 63.4853 38.2255C63.9028 38.2255 64.2252 38.3544 64.4271 38.5786L64.4843 38.2536H65.3764ZM64.239 39.6379C64.3148 39.2231 64.0116 38.9048 63.5563 38.9048C63.1009 38.9048 62.6972 39.2298 62.6214 39.6379C62.5456 40.0459 62.8363 40.377 63.291 40.377C63.5214 40.3709 63.7421 40.2937 63.9151 40.1588C64.0882 40.0238 64.2027 39.8396 64.239 39.6379V39.6379Z" fill="#0071AF"/>
<path d="M65.7655 40.0164L66.4372 36.6085H67.4719L66.8296 39.864C66.7787 40.1411 66.9466 40.3006 67.2896 40.3006C67.3844 40.3018 67.4786 40.2878 67.5666 40.2594L67.421 40.9847C67.2302 41.0262 67.0342 41.05 66.8368 41.0554C66.0424 41.0542 65.6341 40.6883 65.7655 40.0164Z" fill="#0071AF"/>
<path d="M70.4853 37.0128H72.407C73.2284 37.0128 73.9046 37.4925 73.7521 38.3412C73.5997 39.1899 72.8375 39.6754 71.9294 39.6754H70.9903L70.7381 41.0555H69.7578L70.4853 37.0128ZM71.9829 38.9475C72.3867 38.9475 72.7053 38.6995 72.7711 38.3412C72.8368 37.983 72.6056 37.7406 72.2011 37.7406H71.3342L71.1218 38.9475H71.9829Z" fill="#0071AF"/>
<path d="M77.7894 38.2536L77.2468 41.027H76.2669L76.329 40.7075C76.009 40.9388 75.5917 41.0631 75.162 41.0551C74.3284 41.0551 73.6327 40.4833 73.7979 39.6378C73.9631 38.7924 74.7831 38.2255 75.7091 38.2255C76.1684 38.2255 76.5223 38.3544 76.7451 38.5786L76.8072 38.2536H77.7894ZM76.5382 39.6378C76.6215 39.2231 76.2881 38.9048 75.7872 38.9048C75.2863 38.9048 74.8414 39.2298 74.7581 39.6378C74.6747 40.0459 74.9945 40.377 75.4954 40.377C75.7487 40.3708 75.9914 40.2935 76.1818 40.1586C76.3721 40.0237 76.4981 39.8396 76.5382 39.6378V39.6378Z" fill="#0071AF"/>
<path d="M78.6389 38.2595H79.508L79.4284 38.7226C79.7225 38.4147 80.1825 38.2201 80.7099 38.2256L80.5688 39.0447C80.1885 38.8637 79.4157 39.0047 79.2626 39.6772L79.0233 41.0554H78.1543L78.6389 38.2595Z" fill="#0071AF"/>
<path d="M81.466 40.0445L81.6776 38.9266H81.0752L81.2074 38.2343H81.804L81.9564 37.417H82.8955L82.743 38.2343H83.6308L83.5051 38.9266H82.6174L82.4317 39.9084C82.379 40.2035 82.5444 40.3792 82.8955 40.3792C83.0267 40.3774 83.1567 40.3565 83.2797 40.3174L83.1541 40.9645C82.944 41.0229 82.7248 41.0536 82.504 41.0554C81.7376 41.0561 81.3533 40.636 81.466 40.0445Z" fill="#0071AF"/>
<path d="M84.1523 38.2545H85.0951L85.0154 38.6672C85.142 38.525 85.3069 38.4108 85.4962 38.334C85.6855 38.2572 85.8937 38.2203 86.1032 38.2261C86.8082 38.2261 87.4203 38.7197 87.2542 39.6013L86.988 41.0554H86.0452L86.3049 39.6636C86.3984 39.1596 86.1518 38.8998 85.7247 38.8998C85.259 38.8998 84.9327 39.1824 84.8399 39.6402L84.5737 41.0548H83.6309L84.1523 38.2545Z" fill="#0071AF"/>
<path d="M91.2421 39.8595H88.8503C88.8582 40.0165 88.9369 40.1643 89.0692 40.2707C89.2015 40.3771 89.3766 40.4335 89.5564 40.4276C89.7009 40.4305 89.8445 40.4069 89.978 40.3585C90.1114 40.31 90.2318 40.2377 90.3313 40.1462L90.8516 40.5362C90.4922 40.8901 90.0341 41.0612 89.4017 41.0553C88.5091 41.05 87.8896 40.4223 88.0321 39.6543C88.1747 38.8862 88.8686 38.2255 89.9097 38.2255C90.8455 38.2249 91.4962 38.8903 91.2421 39.8595ZM90.4489 39.3511C90.3874 39.0372 90.1456 38.8585 89.7983 38.8585C89.4327 38.8585 89.1287 39.0591 88.9679 39.3511H90.4489Z" fill="#0071AF"/>
<path d="M92.216 38.2595H93.2092L93.1182 38.7226C93.4544 38.4147 93.98 38.2201 94.5828 38.2256L94.4216 39.0447C93.9869 38.8637 93.1037 39.0047 92.9288 39.6772L92.6553 41.0554H91.6621L92.216 38.2595Z" fill="#0071AF"/>
<path d="M96.4082 40.0419L97.4298 39.8233C97.5276 40.1035 97.8262 40.2995 98.271 40.2995C98.7159 40.2995 99.0357 40.1316 99.0706 39.8685C99.1403 39.3869 97.9588 39.4876 97.3275 39.1121C97.1521 39.0111 97.015 38.8727 96.9315 38.7125C96.848 38.5524 96.8213 38.3766 96.8546 38.205C96.9865 37.4883 97.7792 37.0128 98.825 37.0128C99.6663 37.0183 100.285 37.3992 100.424 37.97L99.4389 38.194C99.3555 37.9138 99.1191 37.7404 98.7091 37.7404C98.2642 37.7404 97.9656 37.9535 97.9164 38.194C97.8193 38.6641 98.7576 38.6366 99.3351 38.8545C99.905 39.034 100.28 39.3698 100.19 39.8795C100.058 40.6121 99.2722 41.0669 98.1392 41.0553C97.2078 41.0449 96.5749 40.6243 96.4082 40.0419Z" fill="#0071AF"/>
<path d="M100.447 39.6435C100.531 39.2503 100.785 38.893 101.166 38.6339C101.547 38.3748 102.029 38.2303 102.53 38.2255C103.482 38.2255 104.213 38.8575 104.054 39.6435C103.895 40.4294 103.103 41.0554 101.964 41.0554C101.005 41.0554 100.288 40.4234 100.447 39.6435ZM103.103 39.6435C103.178 39.2643 102.861 38.9618 102.385 38.9618C102.147 38.9663 101.918 39.0368 101.738 39.1612C101.558 39.2856 101.438 39.4562 101.399 39.6435C101.378 39.7269 101.381 39.813 101.408 39.8953C101.435 39.9777 101.484 40.0542 101.553 40.1191C101.622 40.1841 101.708 40.2358 101.806 40.2704C101.903 40.3051 102.01 40.3217 102.116 40.3192C102.354 40.3156 102.582 40.2461 102.762 40.1228C102.942 39.9994 103.062 39.8299 103.102 39.6435H103.103Z" fill="#0071AF"/>
<path d="M104.465 40.0164L105.136 36.6085H106.17L105.528 39.864C105.477 40.1411 105.645 40.3006 105.988 40.3006C106.083 40.3017 106.178 40.2878 106.266 40.2594L106.119 40.9847C105.929 41.0262 105.733 41.05 105.536 41.0554C104.742 41.0542 104.333 40.6883 104.465 40.0164Z" fill="#0071AF"/>
<path d="M106.659 39.6793L106.925 38.2255H107.87L107.61 39.617C107.51 40.121 107.755 40.3813 108.183 40.3813C108.656 40.3813 108.976 40.1037 109.075 39.6411L109.342 38.2268H110.282L109.755 41.0271H108.816L108.896 40.62C108.636 40.8969 108.263 41.0554 107.783 41.0554C107.092 41.0542 106.493 40.5731 106.659 39.6793Z" fill="#0071AF"/>
<path d="M111.038 40.0445L111.249 38.9266H110.646L110.779 38.2343H111.376L111.529 37.417H112.467L112.315 38.2343H113.202L113.076 38.9266H112.189L112.004 39.9084C111.951 40.2035 112.116 40.3792 112.467 40.3792C112.598 40.3774 112.728 40.3564 112.851 40.3174L112.726 40.9645C112.516 41.0229 112.297 41.0536 112.076 41.0554C111.309 41.0561 110.925 40.636 111.038 40.0445Z" fill="#0071AF"/>
<path d="M113.771 38.3006H114.791L114.222 41.0555H113.202L113.771 38.3006ZM113.893 37.4377C113.925 37.3204 114.007 37.2147 114.126 37.1376C114.245 37.0606 114.394 37.0167 114.549 37.013C114.618 37.0111 114.687 37.0214 114.751 37.043C114.814 37.0646 114.871 37.097 114.916 37.1378C114.961 37.1786 114.994 37.2267 115.012 37.2786C115.03 37.3306 115.032 37.3849 115.019 37.4377C114.992 37.5571 114.914 37.6658 114.796 37.7458C114.678 37.8258 114.529 37.8723 114.372 37.8777C114.301 37.879 114.23 37.8679 114.165 37.8452C114.1 37.8225 114.042 37.7888 113.996 37.7466C113.95 37.7043 113.917 37.6547 113.899 37.6012C113.882 37.5477 113.88 37.4919 113.893 37.4377V37.4377Z" fill="#0071AF"/>
<path d="M115.049 39.6435C115.133 39.2502 115.388 38.8928 115.769 38.6337C116.149 38.3746 116.632 38.2301 117.133 38.2255C118.084 38.2255 118.815 38.8575 118.657 39.6435C118.499 40.4294 117.705 41.0554 116.567 41.0554C115.61 41.0554 114.891 40.4234 115.049 39.6435ZM117.705 39.6435C117.78 39.2643 117.463 38.9618 116.988 38.9618C116.749 38.9664 116.521 39.037 116.341 39.1614C116.161 39.2858 116.041 39.4562 116.001 39.6435C115.98 39.7269 115.983 39.813 116.01 39.8953C116.037 39.9777 116.086 40.0542 116.155 40.1191C116.224 40.1841 116.311 40.2358 116.408 40.2704C116.506 40.3051 116.612 40.3217 116.718 40.3192C116.956 40.3157 117.184 40.2463 117.364 40.123C117.545 39.9996 117.665 39.83 117.705 39.6435V39.6435Z" fill="#0071AF"/>
<path d="M119.565 38.2545H120.508L120.428 38.6672C120.555 38.5251 120.72 38.4108 120.909 38.3341C121.099 38.2573 121.307 38.2203 121.516 38.2261C122.222 38.2261 122.833 38.7197 122.667 39.6013L122.401 41.0554H121.458L121.718 39.6636C121.811 39.1596 121.564 38.8998 121.138 38.8998C120.672 38.8998 120.346 39.1824 120.253 39.6402L119.987 41.0548H119.044L119.565 38.2545Z" fill="#0071AF"/>
<path d="M124.52 32.97H47.4873V33.7786H124.52V32.97Z" fill="#0071AF"/>
</svg>
